<?xml version="1.0" encoding="utf-8"?>
<!-- Generator: Adobe Illustrator 25.4.1, SVG Export Plug-In . SVG Version: 6.00 Build 0)  -->
<svg version="1.1" id="レイヤー_1" zoomAndPan="disable"
	 xmlns="http://www.w3.org/2000/svg" xmlns:xlink="http://www.w3.org/1999/xlink" x="0px" y="0px" viewBox="0 0 36 36"
	 style="enable-background:new 0 0 36 36;" xml:space="preserve">
<style type="text/css">
	.st0{fill:#D0D0D0;}
</style>
<g>
	<path class="st0" d="M9.6,18c0.2,0,0.4-0.2,0.4-0.4v-1.5l2.3,1.4v1.8c0,0.3,0.2,0.6,0.6,0.6s0.6-0.2,0.6-0.6v-1.1l1.6,1v0.8
		l1.8,2.7c0,0,0,2.4,0,3.5c0,1.1,0.3,2.2,1.3,2.7c1-0.5,1.3-1.5,1.3-2.7c0-1.1,0-3.5,0-3.5l1.8-2.7v-0.8l1.6-1v1.1
		c0,0.3,0.2,0.6,0.6,0.6s0.6-0.2,0.6-0.6v-1.8l2.3-1.4v1.5c0,0.2,0.2,0.4,0.4,0.4s0.4-0.2,0.4-0.4v-1.9v-1.8v-0.2
		c0-0.2-0.2-0.4-0.4-0.4S26,13.6,26,13.8v0.2h-2.3v-0.6c0-0.3-0.2-0.6-0.6-0.6c-0.3,0-0.6,0.2-0.6,0.6v0.6h-3.1v-1.9l3.1-2.3V8.9
		l-1.1-0.7h-2.3l-0.8,0.8V7.9c0-0.2-0.2-0.4-0.4-0.4c-0.2,0-0.4,0.2-0.4,0.4v1.1l-0.8-0.8h-2.3l-1.1,0.7v0.9l3.1,2.3v1.9h-3.1v-0.6
		c0-0.3-0.2-0.6-0.6-0.6s-0.6,0.2-0.6,0.6v0.6H10v-0.2c0-0.2-0.2-0.4-0.4-0.4c-0.2,0-0.4,0.2-0.4,0.4v0.2v1.8v1.9
		C9.2,17.8,9.4,18,9.6,18z"/>
</g>
</svg>
